:SAMPLES-PER-SECOND 30
:FULLY-SPECIFIED
:DEGREES
170
root  34.82416108 36.49713411 -14.88941823 9.312919617 -7.461637974 4.673723221
lowerback  -6.833220959 -1.604226351 -1.120447755
upperback  -4.132559776 -1.58818996 -4.272294044
thorax  -0.526425004 -0.6146036386 -3.884789944
lowerneck  1.325420022 -19.67510033 -12.81260014
upperneck  7.486859798 -27.59460068 16.04929924
head  6.069808006 -13.29702759 4.645623207
lclavicle  0 -4.497500157e-015 -2.743230041e-014
lhumerus  -50.10129929 29.90209961 59.90250015
lradius  -2.057401616e-006 -6.507048965e-006 29.82760048
lwrist  4.824992743e-007 -3.790274832e-007 -29.9116993
lhand  -0 -37.52289963 -10.50030041
lfingers  90 7.125020027 -90
lthumb  95.06882756 -25.31700795 101.718258
rclavicle  0 -4.497500157e-015 -2.743230041e-014
rhumerus  -15.59500122 -35.01760101 6.703820229
rradius  -5.16745672e-007 2.214343908e-008 38.15010071
rwrist  -0.0001011603963 -0.001600692281 -166.173996
rhand  -1.771741823e-031 4.786670208 -7.548250198
rfingers  -90 -7.125020027 -90
rthumb  -84.99049581 -8.543903164 -59.45906228
rfemur  -14.44402313 16.09009743 11.49775314
rtibia  -1.910337567 -2.331517696 22.32268143
rfoot  -0.08096958697 -23.5647316 -34.14741898
rtoes  3.890389832 19.63318914 -101.4418988
lfemur  -9.228204727 -17.08524704 -21.69919395
ltibia  2.952811718 -2.183857918 15.20615578
lfoot  1.594894052 -21.66510201 38.94645309
ltoes  -8.696707471 -18.080331 -116.2373693
171
root  34.82393881 36.49632612 -14.89264571 9.297730446 -7.439787865 4.664747715
lowerback  -6.850718498 -1.606733799 -1.129371047
upperback  -4.151169777 -1.59473002 -4.269966602
thorax  -0.5362399817 -0.6150754094 -3.884819984
lowerneck  1.434880018 -19.65500069 -12.82299995
upperneck  7.426780224 -27.56990051 16.09090042
head  6.038047791 -13.29434586 4.675477982
lclavicle  0 -4.497500157e-015 -2.743230041e-014
lhumerus  -50.14020157 29.88439941 59.90380096
lradius  -2.057401616e-006 -6.507048965e-006 29.82920265
lwrist  4.824992743e-007 -3.790274832e-007 -29.88710022
lhand  -4.453798173e-031 -37.54880142 -10.57530022
lfingers  90 7.125020027 -90
lthumb  95.09780034 -25.38949752 101.7531678
rclavicle  0 -4.497500157e-015 -2.743230041e-014
rhumerus  -15.60960007 -34.99129868 6.683769226
rradius  -5.16745672e-007 2.214343908e-008 38.09280014
rwrist  -0.0001011603963 -0.001600692281 -166.246994
rhand  -1.771734989e-031 4.784029961 -7.616950035
rfingers  -90 -7.125020027 -90
rthumb  -85.02642003 -8.484519912 -59.46684463
rfemur  -14.43157578 16.1371994 11.51499844
rtibia  -1.90856874 -2.299195528 22.32833862
rfoot  -0.08970669657 -23.50762939 -34.21019363
rtoes  3.875084048 19.63610089 -101.3963487
lfemur  -9.190752029 -17.16144943 -21.70269585
ltibia  2.95988965 -2.192876339 15.18600273
lfoot  1.589026451 -21.63132477 38.98181915
ltoes  -8.720869976 -18.06899025 -116.3152485
172
root  34.8270176 36.49582149 -14.89640334 9.286801338 -7.438261509 4.677899837
lowerback  -6.866587162 -1.608385444 -1.123064756
upperback  -4.152239799 -1.596697807 -4.26807642
thorax  -0.528331995 -0.6159031987 -3.885449886
lowerneck  1.473129988 -19.65340042 -12.8118
upperneck  7.405560017 -27.56779861 16.1012001
head  6.025131226 -13.29162693 4.682347298
lclavicle  0 -4.497500157e-015 -2.743230041e-014
lhumerus  -50.1291008 29.87859917 59.90850067
lradius  -2.057401616e-006 -6.507048965e-006 29.8049984
lwrist  4.824992743e-007 -3.790274832e-007 -29.90049934
lhand  -4.451798094e-031 -37.51530075 -10.63510036
lfingers  90 7.125020027 -90
lthumb  95.09554972 -25.44926058 101.723054
rclavicle  0 -4.497500157e-015 -2.743230041e-014
rhumerus  -15.67809963 -35.0705986 6.691288471
rradius  -5.16745672e-007 2.214343908e-008 38.07580185
rwrist  -0.0001011603963 -0.001600692281 -166.2746887
rhand  -1.771622033e-031 4.740180016 -7.438690186
rfingers  -90 -7.125020027 -90
rthumb  -84.94509243 -8.635148667 -59.49601314
rfemur  -14.43602276 16.13922501 11.50123024
rtibia  -1.907695532 -2.306572437 22.34933472
rfoot  -0.1054911166 -23.51820755 -34.2268219
rtoes  3.852903831 19.64029916 -101.3303518
lfemur  -9.211369514 -17.13610268 -21.70105553
ltibia  2.945187807 -2.18242836 15.20315933
lfoot  1.59484899 -21.66773796 38.98856735
ltoes  -8.697385166 -18.08001346 -116.239553
173
root  34.82829116 36.49588758 -14.8982401 9.285251617 -7.421356678 4.674748898
lowerback  -6.851881027 -1.61007905 -1.1419698
upperback  -4.140779972 -1.597452283 -4.266620159
thorax  -0.5242030025 -0.6170330048 -3.867520094
lowerneck  1.434110045 -19.65800095 -12.83440018
upperneck  7.429230213 -27.57860184 16.13699913
head  6.048789978 -13.28893375 4.680574894
lclavicle  0 -4.497500157e-015 -2.743230041e-014
lhumerus  -50.11840057 29.92650032 59.90909958
lradius  -2.057401616e-006 -6.507048965e-006 29.80649948
lwrist  4.824992743e-007 -3.790274832e-007 -29.9531002
lhand  -0 -37.48469925 -10.64169979
lfingers  90 7.125020027 -90
lthumb  95.08271006 -25.45687154 101.6910042
rclavicle  0 -4.497500157e-015 -2.743230041e-014
rhumerus  -15.77059937 -35.09349823 6.730900764
rradius  -5.16745672e-007 2.214343908e-008 38.07440186
rwrist  -0.0001011603963 -0.001600692281 -166.2891083
rhand  -1.771442025e-031 4.669439793 -7.400259972
rfingers  -90 -7.125020027 -90
rthumb  -84.94188203 -8.663678945 -59.56200401
rfemur  -14.43180656 16.15387154 11.50403881
rtibia  -1.908029914 -2.303393364 22.34608459
rfoot  -0.1092580259 -23.51242256 -34.25398636
rtoes  3.882238788 19.63474127 -101.4176404
lfemur  -9.258084297 -17.16514206 -21.67831993
ltibia  2.907614946 -2.220225096 15.26296616
lfoot  1.562137008 -21.60773087 38.92993546
ltoes  -8.699772685 -18.07889452 -116.2472463
